<svg xmlns="http://www.w3.org/2000/svg" width="123" height="18" viewBox="0 0 123 18">
  <g id="Group_2542" data-name="Group 2542" transform="translate(-941 -661)">
    <g id="mastercard-light-large" transform="translate(973 661)">
      <g id="Group_2532" data-name="Group 2532">
        <g id="Group_2531" data-name="Group 2531">
          <g id="Group_2530" data-name="Group 2530">
            <rect id="Rectangle_1828" data-name="Rectangle 1828" width="27" height="18" rx="4" fill="#dfe3e8"/>
            <g id="Group_2529" data-name="Group 2529">
              <path id="Path_46792" data-name="Path 46792" d="M8.381,2.621h5.743V12H8.381Z" transform="translate(2.25 1.688)" fill="#f26122"/>
              <path id="Path_46793" data-name="Path 46793" d="M9,7.313a5.95,5.95,0,0,1,2.25-4.692,5.968,5.968,0,1,0,0,9.383A5.95,5.95,0,0,1,9,7.313Z" transform="translate(2.25 1.688)" fill="#ea1d25"/>
              <path id="Path_46794" data-name="Path 46794" d="M20.424,11.2V10.85h.156v-.072h-.364v.072h.146V11.2Zm.706,0v-.425h-.1l-.124.3-.135-.3h-.1V11.2h.072v-.322l.125.28h.083l.114-.28V11.2ZM20.9,7.313A5.968,5.968,0,0,1,11.25,12a5.968,5.968,0,0,0,1-8.376,5.852,5.852,0,0,0-1-1.007A5.969,5.969,0,0,1,20.9,7.313Z" transform="translate(2.25 1.688)" fill="#f69e1e"/>
            </g>
          </g>
        </g>
      </g>
    </g>
    <g id="Group_2541" data-name="Group 2541">
      <g id="visa-light-large" transform="translate(941 661)">
        <g id="Group_2525" data-name="Group 2525">
          <g id="Group_2524" data-name="Group 2524">
            <g id="Group_2523" data-name="Group 2523">
              <rect id="Rectangle_1826" data-name="Rectangle 1826" width="27" height="18" rx="4" fill="#dfe3e8"/>
              <path id="Path_46790" data-name="Path 46790" d="M13.421,6.407,12.3,11.61h-1.35l1.125-5.2h1.35ZM19.08,9.782l.709-1.952.41,1.952Zm1.5,1.845h1.249l-1.092-5.2H19.614a.613.613,0,0,0-.562.382l-2.02,4.82H18.45l.276-.775h1.693Zm-3.51-1.688c.006-1.4-1.884-1.5-1.884-2.064,0-.186.18-.383.562-.433a2.533,2.533,0,0,1,1.328.23l.236-1.124a3.6,3.6,0,0,0-1.26-.231c-1.328,0-2.25.709-2.25,1.721,0,.748.67,1.165,1.175,1.412s.7.422.7.647c0,.349-.416.506-.8.512a2.807,2.807,0,0,1-1.373-.338L13.258,11.4a4.033,4.033,0,0,0,1.5.276c1.412,0,2.34-.7,2.346-1.778m-5.574-3.5-2.183,5.2H7.875L6.8,7.436a.564.564,0,0,0-.321-.455,5.538,5.538,0,0,0-1.328-.44l.034-.151h2.29a.63.63,0,0,1,.624.529l.563,3.01,1.4-3.539h1.463Z" fill="#2a2a6c"/>
            </g>
          </g>
        </g>
      </g>
      <g id="discover-light-large" transform="translate(1037 661)">
        <g id="Group_2536" data-name="Group 2536">
          <g id="Group_2535" data-name="Group 2535">
            <g id="Group_2534" data-name="Group 2534">
              <path id="Path_46795" data-name="Path 46795" d="M27,2.25v13.5A2.25,2.25,0,0,1,24.75,18H2.25a2.149,2.149,0,0,1-.765-.135A2.251,2.251,0,0,1,0,15.75V2.25A2.25,2.25,0,0,1,2.25,0h22.5A2.25,2.25,0,0,1,27,2.25Z" fill="#dfe3e8"/>
              <g id="Group_2533" data-name="Group 2533">
                <path id="Path_46796" data-name="Path 46796" d="M25.875,3.375V10.1a2.276,2.276,0,0,1-2.282,2.27H.776A2.184,2.184,0,0,1,0,12.239c1.917-.273,3.765-.613,5.579-1,.479-.09.947-.2,1.415-.306C14.534,9.22,21.06,6.7,24.734,4.226c.41-.284.8-.567,1.141-.851Z" transform="translate(1.125 5.625)" fill="#ee7623"/>
                <path id="Path_46797" data-name="Path 46797" d="M2.149.36H1.125V3.938H2.149a1.926,1.926,0,0,0,1.293-.4A1.812,1.812,0,0,0,2.148.337V.36Zm.832,2.7a1.3,1.3,0,0,1-.967.315h-.18V.968h.18a1.312,1.312,0,0,1,.967.292,1.188,1.188,0,0,1,.394.9A1.2,1.2,0,0,1,2.981,3.06ZM4.416.354h1V3.965h-1Z" transform="translate(1.125 5.625)" fill="#231f20"/>
                <path id="Path_46798" data-name="Path 46798" d="M6.846,1.738c-.422-.152-.563-.259-.563-.456a.482.482,0,0,1,.523-.4.752.752,0,0,1,.563.293L7.734.7A1.542,1.542,0,0,0,6.677.292,1.057,1.057,0,0,0,5.552,1.326c0,.5.225.754.883.99a2.9,2.9,0,0,1,.49.209.427.427,0,0,1,.213.37.511.511,0,0,1-.17.38.516.516,0,0,1-.392.133.833.833,0,0,1-.765-.484l-.456.439a1.4,1.4,0,0,0,1.282.686A1.158,1.158,0,0,0,7.875,2.868c0-.574-.23-.838-1.03-1.13Zm1.26.422a1.865,1.865,0,0,0,1.906,1.884,1.938,1.938,0,0,0,.884-.208V3.01a1.123,1.123,0,0,1-.85.394A1.188,1.188,0,0,1,8.831,2.155,1.2,1.2,0,0,1,10.012.918a1.176,1.176,0,0,1,.884.405V.5A1.8,1.8,0,0,0,10.029.27,1.9,1.9,0,0,0,8.106,2.16Zm8.375.619L15.514.354h-.765l1.53,3.7h.377l1.563-3.7h-.765Zm2.053,1.187h2V3.353h-1.3V2.379h1.248V1.766H19.238v-.8h1.3V.354h-2ZM22.5,2.453a.973.973,0,0,0,.821-1.035C23.321.742,22.86.36,22.04.36H21.005V3.938h.708V2.508h.08l.978,1.43h.855L22.5,2.452Zm-.563-.44h-.225V.924h.226c.427,0,.663.18.663.562s-.247.529-.663.529Z" transform="translate(1.125 5.625)" fill="#231f20"/>
                <path id="Path_46799" data-name="Path 46799" d="M14.957,2.16A1.918,1.918,0,1,1,13.039.242,1.918,1.918,0,0,1,14.957,2.16Z" transform="translate(1.125 5.625)" fill="#ee7623"/>
                <path id="Path_46800" data-name="Path 46800" d="M23.768.659a.156.156,0,0,0,.124-.146c0-.124-.083-.187-.228-.187h-.208v.6H23.6V.68l.187.25h.166L23.768.66ZM23.643.575V.451c.062,0,.1,0,.1.062s.02.062-.083.062h-.02Z" transform="translate(1.125 5.625)" fill="#231f20"/>
                <path id="Path_46801" data-name="Path 46801" d="M23.82.2a.519.519,0,1,0,.38.144A.519.519,0,0,0,23.82.2Zm.27.83a.334.334,0,0,1-.27.125.406.406,0,0,1-.4-.436.395.395,0,1,1,.789,0,.473.473,0,0,1-.124.311Z" transform="translate(1.125 5.625)" fill="#231f20"/>
              </g>
            </g>
          </g>
        </g>
      </g>
    </g>
    <g id="americanexpress-color-large" transform="translate(1005 661)">
      <g id="Group_2540" data-name="Group 2540">
        <g id="Group_2539" data-name="Group 2539">
          <g id="Group_2538" data-name="Group 2538">
            <rect id="Rectangle_1829" data-name="Rectangle 1829" width="27" height="18" rx="4" fill="#fff"/>
            <g id="Group_2537" data-name="Group 2537">
              <path id="Path_46802" data-name="Path 46802" d="M4.995,10.069v4.59H9.641l.484-.687.473.687h2.84V13.624h.315A2.81,2.81,0,0,0,14.6,13.5v1.159h1.93v-.822l.652.822h8.786a1.888,1.888,0,0,0,1.024-.282v1.935A2.251,2.251,0,0,1,24.8,18H2.25A2.25,2.25,0,0,1,0,15.75V8.662H1.282l.265-.686h.63l.259.686H12.752v-.82l.652.82H16.11V8.246a2.24,2.24,0,0,0,1.361.416h1.615l.258-.686h.63l.276.686h2.756V7.774l.563.888h1.9V4.072H23.45v.934l-.6-.934H21.082V5.254L20.52,4.073h-3a2.185,2.185,0,0,0-1.406.46v-.46H6.188l-.338.99L5.513,4.05H3.263V5.231L2.733,4.05H.9L0,6.188V2.25A2.25,2.25,0,0,1,2.25,0H24.8A2.25,2.25,0,0,1,27,1.688v8.38H10.609l-.484.676-.473-.675H4.995Z" fill="#296db6"/>
              <path id="Path_46803" data-name="Path 46803" d="M8.274,11.453v-.675H5.726V13.95H8.274v-.675H6.491v-.563h1.75v-.686H6.49v-.562l1.783-.011Zm2.3.922L11.846,10.8h-.934l-.787.979-.782-1H8.387l1.288,1.6L8.437,13.95H9.36l.765-1.012.765,1.023h.967l-1.282-1.586ZM13.742,10.8h-1.75v3.15h.771V12.9h.956a1.046,1.046,0,0,0,1.125-1.069,1.018,1.018,0,0,0-1.1-1.058V10.8Zm-.068,1.451h-.91v-.8h.91a.388.388,0,1,1,0,.776Zm3.538.563a1.008,1.008,0,1,0-.236-2H15.255V13.95h.765V12.825h.349l.945,1.125h.962l-1.064-1.136Zm-.3-.63H16.02v-.731h.889a.344.344,0,0,1,.276.084.349.349,0,0,1,.117.264.342.342,0,0,1-.393.349Zm4.106-.7v-.675h-2.56V13.95h2.56v-.675H19.232v-.563H20.97v-.686H19.232v-.562Zm2.12.563H22.4a.287.287,0,1,1,0-.563h1.367l.3-.675H22.422a.98.98,0,0,0-1.091.99.883.883,0,0,0,.99.934h.742a.287.287,0,1,1,0,.562H21.42v.675h1.642a.984.984,0,0,0,1.064-1.035.872.872,0,0,0-.99-.911v.023Zm2.194-.563H26.7L27,10.8H25.352a.978.978,0,0,0-1.091.99.883.883,0,0,0,.99.934h.725a.287.287,0,1,1,0,.562H24.351v.675h1.614A1,1,0,0,0,27,13.309v-.754a.911.911,0,0,0-.922-.529h-.765a.287.287,0,1,1,0-.562l.017.022ZM2.38,4.781h-1L0,7.954H.833l.292-.641h1.48l.27.663h.866l-1.362-3.2ZM1.339,6.671l.31-.742.2-.495.2.495.3.742H1.339Zm5.242-1.89L5.962,6.615l-.1.349-.1-.349L5.13,4.781H3.887V7.954h.748V5.389l.158.483.72,2.082h.675l.736-2.082.147-.483V7.954h.742V4.78H6.581Zm4.388.675V4.781H8.438V7.954h2.53V7.279H9.187V6.716h1.738V6.03H9.186V5.467l1.783-.01Zm2.48,1.328a1.01,1.01,0,0,0-.258-2H11.475V7.954h.782V6.829h.349l.945,1.125h.956l-1.058-1.17Zm-.3-.63h-.89v-.7h.89a.355.355,0,0,1,.274.087.361.361,0,0,1,.12.262.346.346,0,0,1-.116.266A.341.341,0,0,1,13.146,6.154Zm1.54-1.373V7.954h.771V4.78h-.77Zm2.813.687h.827V4.78h-.889a1.435,1.435,0,0,0-1.519,1.564v.045a1.408,1.408,0,0,0,1.475,1.564h.044l.31-.675h-.253a.788.788,0,0,1-.822-.889V6.344a.787.787,0,0,1,.822-.877h0Zm2.69-.687H19.176L17.814,7.954h.822l.27-.641h1.5l.27.663h.866L20.188,4.781Zm-1.036,1.89.293-.742.2-.495.191.495.3.742Zm4.815-1.89v2.07l-.214-.36L22.629,4.8H21.69V7.976h.754V5.816l.2.349,1.176,1.789h.928V4.78h-.782Z" fill="#296db6"/>
            </g>
          </g>
        </g>
      </g>
    </g>
  </g>
</svg>