<svg height="28.605" viewBox="0 0 20 28.605" width="13" xmlns="http://www.w3.org/2000/svg"><path d="m3 15.815h18a1.063 1.063 0 0 0 .886-.422.649.649 0 0 0 -.063-.813l-9-10.234a1.222 1.222 0 0 0 -1.645 0l-9 10.234a.648.648 0 0 0 -.063.813 1.059 1.059 0 0 0 .885.422z" transform="translate(-2 -4.026)"/><path d="m3 4.027h18a1.062 1.062 0 0 1 .886.422.649.649 0 0 1 -.063.813l-9 10.236a1.222 1.222 0 0 1 -1.645 0l-9-10.236a.648.648 0 0 1 -.063-.813 1.059 1.059 0 0 1 .885-.422z" transform="translate(-2 12.788)"/></svg>